<!DOCTYPE svg PUBLIC "-//W3C//DTD SVG 1.1//EN" "http://www.w3.org/Graphics/SVG/1.1/DTD/svg11.dtd">
<!-- Uploaded to: SVG Repo, www.svgrepo.com, Transformed by: SVG Repo Mixer Tools -->
<svg fill="#c32cce" height="800px" width="800px" version="1.1" id="Capa_1" xmlns="http://www.w3.org/2000/svg" xmlns:xlink="http://www.w3.org/1999/xlink" viewBox="0 0 591.6 591.6" xml:space="preserve" stroke="#c32cce">
<g id="SVGRepo_bgCarrier" stroke-width="0"/>
<g id="SVGRepo_tracerCarrier" stroke-linecap="round" stroke-linejoin="round"/>
<g id="SVGRepo_iconCarrier"> <g> <g> <path d="M540.6,81.6H51c-28.152,0-51,22.848-51,51V459c0,28.152,22.848,51,51,51h489.6c28.152,0,51-22.848,51-51V132.6 C591.6,104.448,568.752,81.6,540.6,81.6z M540.6,102c4.692,0,8.976,1.02,13.056,2.856L295.8,291.312L37.944,104.856 C41.82,103.02,46.308,102,51,102H540.6z M571.2,459c0,16.932-13.668,30.6-30.6,30.6h-40.596l-97.716-175.848 c-1.428-2.448-4.488-3.264-6.936-2.04c-2.448,1.428-3.264,4.488-2.04,6.936l94.86,170.952H103.224l94.86-170.952 c1.428-2.448,0.408-5.508-2.04-6.936c-2.448-1.428-5.508-0.408-6.936,2.04L91.596,489.6H51c-16.932,0-30.6-13.668-30.6-30.6V132.6 c0-4.692,1.02-9.18,3.06-13.26c0.408,0.408,0.816,0.816,1.224,1.02l265.2,191.76c1.836,1.224,3.876,1.836,5.916,1.836 c2.04,0,4.284-0.612,5.916-1.836l265.2-191.76c0.408-0.408,0.816-0.612,1.224-1.02c1.836,4.08,3.06,8.568,3.06,13.26V459z"/> </g> </g> </g>
</svg>